<mxfile host="www.draw.io" modified="2019-12-25T12:53:06.186Z" agent="Mozilla/5.0 (Windows NT 10.0; Win64; x64) AppleWebKit/537.36 (KHTML, like Gecko) Chrome/79.0.3945.88 Safari/537.36" etag="tAs-a-FkZr0Vu4XKOciD" version="12.4.3" type="github" pages="1">
  <diagram id="JME2C_ISR-vIaM2KFaNa" name="Page-1">
    <mxGraphModel dx="1038" dy="548" grid="1" gridSize="10" guides="1" tooltips="1" connect="1" arrows="1" fold="1" page="1" pageScale="1" pageWidth="850" pageHeight="1100" math="0" shadow="0">
      <root>
        <mxCell id="0"/>
        <mxCell id="1" parent="0"/>
        <mxCell id="mjJQvCi9DFyuKkfkjfuT-1" style="edgeStyle=orthogonalEdgeStyle;rounded=0;orthogonalLoop=1;jettySize=auto;html=1;" parent="1" source="mjJQvCi9DFyuKkfkjfuT-3" edge="1">
          <mxGeometry relative="1" as="geometry">
            <mxPoint x="280" y="200" as="targetPoint"/>
            <Array as="points">
              <mxPoint x="170" y="200"/>
              <mxPoint x="170" y="200"/>
            </Array>
          </mxGeometry>
        </mxCell>
        <mxCell id="mjJQvCi9DFyuKkfkjfuT-2" value="1 - Search For Coaches" style="text;html=1;align=center;verticalAlign=middle;resizable=0;points=[];;labelBackgroundColor=#ffffff;" parent="mjJQvCi9DFyuKkfkjfuT-1" vertex="1" connectable="0">
          <mxGeometry x="0.1242" relative="1" as="geometry">
            <mxPoint x="-17" y="-10" as="offset"/>
          </mxGeometry>
        </mxCell>
        <mxCell id="mjJQvCi9DFyuKkfkjfuT-3" value="Athlete" style="shape=umlActor;verticalLabelPosition=bottom;labelBackgroundColor=#ffffff;verticalAlign=top;html=1;outlineConnect=0;" parent="1" vertex="1">
          <mxGeometry x="60" y="170" width="30" height="120" as="geometry"/>
        </mxCell>
        <mxCell id="mjJQvCi9DFyuKkfkjfuT-4" style="edgeStyle=orthogonalEdgeStyle;rounded=0;orthogonalLoop=1;jettySize=auto;html=1;" parent="1" edge="1">
          <mxGeometry relative="1" as="geometry">
            <mxPoint x="610" y="200" as="targetPoint"/>
            <mxPoint x="410" y="200" as="sourcePoint"/>
            <Array as="points">
              <mxPoint x="500" y="200"/>
              <mxPoint x="500" y="200"/>
            </Array>
          </mxGeometry>
        </mxCell>
        <mxCell id="mjJQvCi9DFyuKkfkjfuT-5" value="3 -&amp;nbsp; Search For Desired Coach" style="text;html=1;align=center;verticalAlign=middle;resizable=0;points=[];;labelBackgroundColor=#ffffff;" parent="mjJQvCi9DFyuKkfkjfuT-4" vertex="1" connectable="0">
          <mxGeometry x="0.2" y="6" relative="1" as="geometry">
            <mxPoint x="-20" y="-4" as="offset"/>
          </mxGeometry>
        </mxCell>
        <mxCell id="mjJQvCi9DFyuKkfkjfuT-6" value="&amp;lt;&amp;lt; System &amp;gt;&amp;gt;" style="rounded=0;whiteSpace=wrap;html=1;" parent="1" vertex="1">
          <mxGeometry x="280" y="180" width="120" height="190" as="geometry"/>
        </mxCell>
        <mxCell id="mjJQvCi9DFyuKkfkjfuT-7" value="Athlete" style="rounded=0;whiteSpace=wrap;html=1;" parent="1" vertex="1">
          <mxGeometry x="620" y="180" width="120" height="190" as="geometry"/>
        </mxCell>
        <mxCell id="mjJQvCi9DFyuKkfkjfuT-8" value="" style="endArrow=classic;html=1;entryX=0;entryY=0.25;entryDx=0;entryDy=0;" parent="1" target="mjJQvCi9DFyuKkfkjfuT-6" edge="1">
          <mxGeometry width="50" height="50" relative="1" as="geometry">
            <mxPoint x="90" y="228" as="sourcePoint"/>
            <mxPoint x="140" y="220" as="targetPoint"/>
          </mxGeometry>
        </mxCell>
        <mxCell id="mjJQvCi9DFyuKkfkjfuT-9" value="2 - Enter Filtering Data" style="text;html=1;align=center;verticalAlign=middle;resizable=0;points=[];;labelBackgroundColor=#ffffff;" parent="mjJQvCi9DFyuKkfkjfuT-8" vertex="1" connectable="0">
          <mxGeometry x="-0.1284" relative="1" as="geometry">
            <mxPoint as="offset"/>
          </mxGeometry>
        </mxCell>
        <mxCell id="mjJQvCi9DFyuKkfkjfuT-10" style="edgeStyle=orthogonalEdgeStyle;rounded=0;orthogonalLoop=1;jettySize=auto;html=1;" parent="1" edge="1">
          <mxGeometry relative="1" as="geometry">
            <mxPoint x="610" y="240" as="targetPoint"/>
            <mxPoint x="410" y="240" as="sourcePoint"/>
            <Array as="points">
              <mxPoint x="500" y="240"/>
              <mxPoint x="500" y="240"/>
            </Array>
          </mxGeometry>
        </mxCell>
        <mxCell id="mjJQvCi9DFyuKkfkjfuT-11" value="5 -&amp;nbsp; Get Desired Coach Info" style="text;html=1;align=center;verticalAlign=middle;resizable=0;points=[];;labelBackgroundColor=#ffffff;" parent="mjJQvCi9DFyuKkfkjfuT-10" vertex="1" connectable="0">
          <mxGeometry x="0.2" y="6" relative="1" as="geometry">
            <mxPoint x="-20" y="-4" as="offset"/>
          </mxGeometry>
        </mxCell>
        <mxCell id="mjJQvCi9DFyuKkfkjfuT-12" value="" style="endArrow=classic;html=1;entryX=0;entryY=0.25;entryDx=0;entryDy=0;" parent="1" edge="1">
          <mxGeometry width="50" height="50" relative="1" as="geometry">
            <mxPoint x="90" y="260.5" as="sourcePoint"/>
            <mxPoint x="280" y="260" as="targetPoint"/>
          </mxGeometry>
        </mxCell>
        <mxCell id="mjJQvCi9DFyuKkfkjfuT-13" value="4 - Select Specific Coach" style="text;html=1;align=center;verticalAlign=middle;resizable=0;points=[];;labelBackgroundColor=#ffffff;" parent="mjJQvCi9DFyuKkfkjfuT-12" vertex="1" connectable="0">
          <mxGeometry x="-0.1284" relative="1" as="geometry">
            <mxPoint as="offset"/>
          </mxGeometry>
        </mxCell>
      </root>
    </mxGraphModel>
  </diagram>
</mxfile>
